<?xml version="1.0" standalone="no"?>
<!DOCTYPE svg PUBLIC "-//W3C//DTD SVG 20010904//EN"
 "http://www.w3.org/TR/2001/REC-SVG-20010904/DTD/svg10.dtd">
<svg version="1.0" xmlns="http://www.w3.org/2000/svg"
 width="1080.000000pt" height="1066.000000pt" viewBox="0 0 1080.000000 1066.000000"
 preserveAspectRatio="xMidYMid meet">
<metadata>
Created by potrace 1.16, written by Peter Selinger 2001-2019
</metadata>
<g transform="translate(0.000000,1066.000000) scale(0.100000,-0.100000)"
fill="#000000" stroke="none">
<path d="M7639 10430 c-43 -29 -47 -30 -166 -30 -127 0 -299 -14 -368 -30 -22
-5 -65 -14 -95 -21 -30 -6 -80 -20 -110 -31 -30 -10 -84 -28 -120 -39 -115
-36 -443 -196 -508 -249 -21 -17 -60 -34 -90 -41 -59 -12 -164 -51 -197 -73
-27 -18 -113 -136 -125 -174 -6 -15 -14 -70 -19 -122 -6 -52 -16 -117 -22
-145 -8 -32 -11 -115 -10 -226 2 -97 0 -187 -4 -199 -7 -21 -7 -21 -21 -2 -15
21 -38 88 -49 139 -4 18 -11 35 -16 39 -5 3 -21 22 -34 42 -62 95 -93 133
-169 208 -44 45 -99 93 -121 107 -22 14 -50 38 -63 54 -80 101 -86 105 -131
105 -35 -1 -44 3 -48 19 -3 10 -12 19 -19 19 -8 0 -49 18 -91 40 -180 92 -224
99 -553 100 -365 0 -457 -12 -563 -70 -9 -6 -45 -21 -80 -34 -203 -77 -357
-189 -477 -346 -70 -92 -138 -224 -157 -305 -72 -303 -75 -330 -75 -536 1
-181 21 -365 49 -448 13 -38 13 -45 0 -58 -13 -13 -18 -13 -43 0 -16 8 -38 25
-49 37 -48 54 -128 75 -225 59 -36 -5 -153 -12 -260 -15 -211 -5 -254 -12
-424 -71 -224 -78 -362 -171 -490 -333 -83 -104 -101 -136 -154 -270 -54 -138
-76 -237 -77 -335 0 -76 2 -83 32 -121 18 -23 57 -56 87 -75 78 -48 74 -63
-22 -84 -244 -53 -296 -75 -513 -216 -42 -28 -100 -64 -128 -82 -71 -44 -213
-142 -293 -202 -37 -27 -88 -65 -115 -83 -26 -19 -82 -58 -123 -87 -41 -30
-100 -68 -130 -86 -30 -18 -101 -78 -157 -135 l-103 -102 0 -2961 0 -2961
1589 0 1589 0 6 28 c4 15 11 52 16 82 5 33 16 60 27 68 15 11 68 12 298 6 483
-13 556 -9 803 47 48 10 129 28 180 39 51 11 102 25 113 31 11 6 44 17 72 26
29 8 57 18 62 23 6 4 28 11 50 15 22 4 45 10 50 14 27 21 170 62 245 71 246
28 427 -23 551 -158 32 -36 59 -71 59 -78 0 -27 39 -25 102 7 35 17 72 39 83
50 26 23 254 140 331 169 103 38 199 53 349 52 134 0 175 -5 400 -52 28 -6 82
-17 120 -24 39 -8 115 -30 170 -50 55 -21 111 -41 125 -45 14 -5 66 -30 115
-56 60 -31 104 -48 130 -49 22 0 45 -6 50 -12 6 -6 29 -16 52 -23 23 -6 60
-27 83 -46 44 -36 64 -43 76 -24 4 7 22 9 45 6 22 -3 48 1 64 9 14 7 31 13 38
11 6 -1 13 7 15 18 2 11 9 23 16 27 8 6 8 8 -1 8 -7 0 -24 11 -39 25 -15 14
-34 25 -44 25 -13 0 -16 7 -12 30 4 26 1 30 -19 30 -39 0 -69 -11 -69 -25 0
-24 -50 -27 -91 -5 -22 11 -48 20 -58 20 -10 0 -24 6 -30 14 -6 7 -23 13 -38
13 -38 1 -76 48 -68 86 4 23 1 30 -15 34 -13 3 -20 14 -20 29 0 16 -6 24 -17
24 -15 0 -16 2 -3 10 12 8 12 10 -2 15 -10 4 -21 4 -26 1 -17 -10 -30 18 -25
51 3 17 14 41 25 53 11 11 17 28 14 36 -3 8 3 20 14 26 23 15 27 38 6 38 -22
0 -28 31 -10 51 12 14 13 19 4 19 -10 0 -9 4 2 18 9 10 16 39 17 71 1 29 4 57
6 62 12 19 175 -79 254 -151 47 -43 129 -109 149 -119 12 -6 22 -20 22 -30 0
-10 12 -23 26 -30 15 -6 24 -14 21 -17 -3 -3 11 -27 30 -52 20 -26 40 -59 45
-75 6 -15 16 -27 24 -27 8 0 14 -7 14 -15 0 -8 11 -22 25 -31 14 -9 25 -23 25
-32 0 -9 18 -37 41 -64 29 -35 39 -54 34 -68 -4 -11 -5 -20 -3 -20 2 0 23 6
48 14 31 9 46 19 47 32 1 10 6 35 12 54 6 25 9 29 10 12 1 -12 6 -31 13 -41
11 -18 13 -18 25 -3 12 16 14 16 28 -2 15 -19 15 -19 15 2 0 16 6 22 23 22 18
0 19 -2 7 -11 -11 -8 -8 -9 15 -4 49 10 68 37 69 97 1 36 8 63 21 83 25 36 48
102 41 113 -3 5 1 26 9 48 8 21 14 53 15 70 0 17 8 39 19 48 17 15 19 28 15
87 -4 64 -3 69 16 69 13 0 20 7 20 20 0 24 -25 27 -34 3 -6 -14 -8 -14 -21 3
-18 24 -18 29 1 49 19 19 11 33 -9 17 -10 -9 -17 -8 -25 0 -9 9 -12 9 -12 0 0
-7 5 -12 10 -12 16 0 12 -40 -5 -46 -8 -4 -15 -13 -15 -22 0 -13 -2 -14 -12
-3 -10 11 -10 14 0 18 18 7 15 53 -3 53 -18 0 -18 -4 0 45 10 28 14 33 15 18
0 -28 16 -30 25 -4 3 11 13 22 21 25 9 3 12 2 9 -4 -9 -15 3 -47 18 -47 9 0
12 9 9 24 -3 18 0 23 18 23 18 0 21 -5 18 -27 -2 -22 1 -29 19 -31 20 -3 21
-1 13 30 -5 18 -8 42 -7 53 1 15 -5 21 -23 23 -64 7 -71 11 -64 39 4 15 16 36
26 48 19 20 19 20 -14 23 -24 2 -36 10 -45 27 -6 15 -7 27 -2 31 5 3 9 0 9 -5
0 -6 12 -11 26 -11 22 0 25 4 21 21 -4 15 1 27 16 39 l22 18 -40 16 c-41 17
-39 32 5 38 17 2 26 10 28 26 2 12 9 22 17 22 7 0 19 16 25 35 8 23 19 37 35
41 28 7 57 47 49 67 -3 8 2 22 11 31 9 9 14 16 10 16 -4 0 8 12 27 28 18 15
34 30 36 33 1 3 18 23 36 44 38 43 15 38 316 60 41 3 81 8 88 10 7 2 24 0 39
-6 20 -7 30 -6 40 4 12 12 10 19 -15 47 -17 18 -32 27 -36 22 -3 -6 0 -13 6
-15 8 -4 7 -6 -4 -6 -9 -1 -28 12 -41 29 -17 19 -27 25 -31 17 -3 -7 -7 -3
-11 10 -4 12 -16 25 -26 28 -11 4 -27 17 -35 31 -9 13 -23 24 -31 24 -19 0
-99 86 -114 122 -6 15 -15 25 -20 23 -8 -6 -33 31 -34 50 0 16 -95 19 -95 3 0
-17 -69 -72 -89 -70 -9 0 -29 -2 -44 -5 -22 -4 -27 -9 -22 -24 4 -12 -2 -31
-16 -51 -13 -18 -22 -44 -21 -59 1 -15 -2 -30 -6 -33 -18 -11 -51 7 -62 34
-11 25 -15 27 -56 22 -29 -3 -44 -1 -44 7 0 6 7 11 15 11 8 0 15 7 15 15 0 10
-10 15 -30 15 -22 0 -28 -4 -24 -15 4 -8 1 -15 -6 -15 -6 0 -10 10 -8 23 3 18
-3 23 -32 27 -40 6 -49 33 -12 38 30 5 23 26 -10 30 -15 2 -30 13 -36 28 -10
20 -8 28 8 44 11 11 25 20 31 20 9 0 8 4 0 14 -16 19 -3 77 17 74 25 -4 26 28
2 35 -11 3 -20 13 -20 24 0 28 -20 43 -57 43 -34 0 -41 8 -22 27 9 9 6 13 -12
17 -63 14 -103 10 -95 -9 3 -9 0 -15 -9 -15 -7 0 -16 13 -20 30 -4 16 -11 30
-16 30 -5 0 -9 11 -9 25 0 17 -6 25 -17 25 -9 0 -27 10 -39 21 -28 26 -54 19
-54 -16 0 -18 -7 -28 -24 -35 -27 -10 -71 -53 -91 -90 -7 -14 -27 -34 -44 -45
-27 -17 -30 -24 -25 -49 6 -27 4 -28 -19 -22 -16 4 -31 1 -39 -8 -22 -21 -126
-26 -160 -7 -15 9 -28 19 -28 24 0 12 35 8 48 -5 10 -10 17 -10 33 0 11 7 24
10 29 7 6 -3 20 1 32 9 22 16 22 16 -14 16 -20 0 -40 5 -43 10 -9 15 -25 12
-25 -5 0 -22 -59 -20 -67 3 -3 9 -13 25 -21 35 -14 16 -12 17 22 17 41 0 57
21 38 51 -9 15 -8 19 9 24 12 4 26 2 32 -4 13 -13 30 -15 22 -2 -9 16 -66 41
-91 41 -14 0 -25 8 -29 19 -9 29 -34 46 -46 34 -8 -8 -21 -7 -45 3 -19 8 -40
12 -46 8 -7 -4 -8 -3 -4 4 4 6 -7 21 -23 33 -38 28 -31 39 22 39 27 0 38 3 31
10 -15 15 -104 1 -104 -16 0 -8 -5 -14 -10 -14 -19 0 -22 28 -4 55 9 14 13 29
9 33 -4 4 -14 -3 -22 -16 -9 -12 -19 -22 -24 -22 -16 0 -10 26 11 50 11 13 19
28 17 33 -3 11 -94 37 -101 30 -3 -3 -14 -2 -25 2 -28 9 -27 28 14 175 19 69
42 172 51 230 8 58 24 146 34 195 10 50 25 126 34 170 9 44 32 159 51 255 20
96 38 186 41 200 3 14 9 50 15 80 6 30 14 73 19 95 23 109 84 427 99 520 16
92 29 151 59 260 13 50 30 113 37 140 7 28 22 78 33 110 11 33 32 105 45 160
14 55 35 127 47 160 12 33 26 76 32 95 35 126 84 272 104 310 12 25 35 74 49
110 39 95 82 174 144 269 66 98 69 130 31 248 -23 72 -24 73 -4 94 16 18 19
37 19 138 l0 116 49 47 48 48 -7 64 c-6 64 -6 64 24 82 16 10 46 37 66 61 21
25 58 53 90 68 100 48 151 126 194 300 49 194 70 303 97 490 8 61 24 151 35
200 26 121 24 177 -11 330 -17 71 -35 148 -40 170 -5 23 -26 71 -48 108 -27
46 -41 84 -46 122 -6 51 -4 58 34 121 73 118 92 208 86 390 -3 71 -9 148 -15
172 -6 23 -15 59 -19 80 -8 36 -45 126 -99 244 -18 39 -52 82 -107 137 -123
122 -176 156 -276 177 -124 26 -188 19 -272 -33 -50 -31 -64 -29 -125 12 -91
61 -239 135 -270 135 -17 0 -49 -13 -74 -30z m-1296 -868 c7 -5 26 -14 42 -19
17 -6 50 -29 75 -52 25 -22 49 -41 55 -41 5 -1 31 -20 57 -43 49 -45 48 -41
46 -147 0 -19 4 -36 11 -38 6 -2 11 -12 11 -22 0 -9 7 -23 15 -30 9 -8 12 -22
8 -41 -4 -20 -2 -29 8 -29 10 0 9 -5 -4 -17 -11 -11 -37 -19 -70 -21 -224 -14
-255 -20 -336 -68 -43 -24 -95 -47 -117 -51 -57 -9 -80 -31 -76 -72 3 -25 0
-31 -10 -25 -27 17 -48 14 -48 -6 0 -28 -19 -25 -30 5 -5 14 -15 86 -21 161
-13 155 -8 190 46 360 37 114 63 153 119 175 17 7 36 18 42 24 13 12 160 10
177 -3z m487 -642 c0 -20 6 -31 20 -35 15 -5 20 -15 20 -40 0 -19 5 -37 10
-40 13 -8 1 -77 -15 -87 -8 -5 -10 -26 -7 -62 3 -42 1 -57 -10 -61 -8 -3 -15
-22 -17 -47 -2 -40 -30 -77 -58 -78 -6 0 -20 -10 -30 -22 -10 -13 -25 -24 -33
-26 -8 -2 -43 -17 -78 -33 -74 -36 -171 -45 -200 -20 -10 9 -39 35 -65 59 -38
35 -54 42 -87 42 -36 0 -42 4 -65 40 -14 22 -25 42 -25 45 0 13 -41 94 -50
100 -13 8 -13 25 0 25 13 0 60 -49 60 -62 0 -4 21 -6 46 -4 47 4 92 -14 140
-56 15 -13 33 -18 55 -16 40 4 78 54 104 136 13 39 29 63 66 95 45 39 91 104
106 150 3 9 15 17 28 17 12 0 28 7 35 15 19 23 50 1 50 -35z m510 -3626 c0
-13 4 -32 9 -42 5 -9 14 -28 20 -43 7 -14 26 -30 42 -36 27 -10 30 -16 28 -50
-1 -21 5 -60 14 -86 10 -26 17 -57 17 -68 0 -12 4 -17 11 -14 5 4 8 12 6 18
-4 13 20 40 38 43 7 1 21 4 31 8 27 8 54 -16 48 -41 -4 -14 -12 -19 -24 -16
-26 7 -34 -14 -16 -42 21 -32 46 -33 46 -1 0 19 4 22 24 19 14 -3 32 -13 41
-23 15 -16 15 -23 2 -66 -10 -34 -20 -49 -31 -48 -18 2 -61 -61 -51 -76 10
-16 35 -11 35 7 0 15 2 14 15 -4 12 -17 13 -27 3 -47 -6 -14 -19 -26 -28 -26
-11 0 -20 -11 -23 -29 -3 -16 -14 -36 -23 -45 -14 -15 -15 -21 -4 -42 11 -19
11 -27 2 -36 -16 -16 -15 -85 1 -91 10 -3 10 -9 0 -26 -18 -29 -16 -34 8 -28
23 6 23 9 1 -74 -11 -43 -42 -88 -59 -89 -18 0 -16 24 5 50 12 15 16 34 14 61
-4 40 -22 45 -23 6 0 -22 0 -22 -10 1 -12 32 -33 23 -39 -19 -3 -23 -11 -35
-24 -37 -17 -4 -18 0 -11 29 15 68 23 124 18 129 -3 3 -8 -1 -10 -7 -3 -7 -10
-13 -16 -13 -6 0 -23 -15 -38 -32 l-27 -33 -11 28 c-16 41 -14 104 3 110 8 3
21 -4 30 -16 15 -22 16 -22 31 -2 9 11 14 28 11 37 -2 10 0 21 5 24 15 9 10
34 -6 34 -8 0 -15 -6 -15 -14 0 -7 -7 -20 -17 -27 -15 -13 -15 -10 -9 26 4 22
8 43 9 47 1 3 -2 7 -8 9 -5 1 -20 -17 -31 -41 -20 -42 -22 -42 -33 -22 -6 12
-17 21 -23 19 -7 -1 -25 24 -41 57 l-29 58 -24 -23 c-13 -12 -24 -29 -24 -38
0 -10 -3 -12 -10 -5 -7 7 -5 21 6 42 19 40 11 68 -22 76 -25 7 -26 9 -19 54 4
26 11 55 17 66 10 18 8 44 -7 79 -5 12 -3 17 7 17 8 0 22 -17 30 -39 11 -27
26 -44 54 -57 30 -15 40 -28 49 -59 6 -22 13 -34 16 -26 3 9 10 11 18 7 9 -6
9 -11 0 -22 -6 -7 -8 -21 -5 -30 6 -15 8 -15 26 1 13 11 18 25 15 37 -4 11 3
27 20 44 27 27 27 54 1 54 -8 0 -21 -9 -29 -21 -9 -13 -17 -16 -22 -10 -3 6
-15 11 -26 11 -32 0 -21 29 19 48 20 9 37 22 37 27 0 6 4 16 9 23 6 11 12 10
27 -4 11 -9 22 -14 27 -10 4 4 -1 13 -11 20 -18 14 -22 44 -12 87 6 22 2 28
-26 39 -18 8 -43 13 -56 12 -29 -2 -29 2 2 42 26 35 32 70 14 82 -6 3 -8 15
-5 27 3 11 0 30 -6 41 -7 12 -13 41 -14 66 l-2 44 19 -23 c11 -13 19 -34 19
-47z m740 -3484 c-5 -10 -7 -25 -4 -33 3 -8 -6 -23 -20 -35 -24 -19 -25 -20
-6 -25 14 -4 18 -10 14 -22 -5 -12 -10 -13 -17 -6 -18 18 -39 13 -33 -6 3 -10
8 -31 12 -47 7 -27 6 -28 -25 -21 -28 6 -31 4 -31 -17 0 -49 -11 -68 -39 -67
-23 0 -24 1 -6 8 19 8 19 8 -2 15 -30 10 -30 46 -1 98 16 28 19 41 11 46 -8 5
0 20 24 47 20 22 40 39 45 38 4 -2 8 4 8 12 0 8 14 24 30 37 19 14 26 24 19
29 -6 4 -8 12 -4 19 13 21 37 -48 25 -70z m498 -65 c39 -8 104 -22 144 -30 39
-8 76 -19 82 -25 5 -5 18 -10 27 -10 27 0 33 -20 13 -35 -16 -12 -21 -12 -30
0 -13 17 -40 20 -49 5 -11 -18 -87 -33 -112 -21 -19 9 -25 8 -29 -4 -7 -17
-130 -20 -172 -4 -15 6 -28 6 -31 1 -12 -19 -51 -24 -67 -8 -23 23 -34 20 -35
-11 l0 -28 -10 25 c-5 14 -17 30 -25 37 -19 14 -10 33 17 33 10 0 19 5 19 11
0 6 -7 9 -15 6 -8 -4 -17 -2 -20 4 -4 5 7 12 24 15 17 4 33 14 36 25 10 31
118 38 233 14z m-6326 -132 c10 -9 32 -13 60 -11 28 2 42 -1 41 -8 -1 -7 6
-10 16 -7 11 3 48 -9 82 -26 35 -17 69 -31 76 -31 6 0 19 -7 28 -17 13 -13 18
-14 25 -3 10 16 115 -15 133 -40 11 -15 33 -17 177 -16 142 1 171 4 205 21 37
18 65 20 335 22 162 2 315 4 340 5 59 3 120 -26 113 -53 -3 -10 -1 -25 5 -32
8 -10 7 -16 -7 -26 -12 -9 -16 -22 -13 -41 3 -24 0 -30 -21 -35 -40 -11 -55 8
-34 42 9 14 -8 27 -24 18 -5 -4 -8 -12 -6 -18 9 -24 -13 -47 -45 -47 -17 0
-40 -8 -50 -17 -15 -14 -21 -15 -27 -4 -6 9 -11 10 -15 2 -8 -12 -52 -15 -59
-3 -2 4 -2 1 0 -7 2 -8 -2 -11 -12 -8 -8 4 -20 1 -27 -6 -7 -7 -26 -17 -43
-22 -16 -6 -30 -17 -30 -24 0 -8 -8 -19 -18 -25 -14 -9 -20 -7 -28 7 -14 24
-46 21 -55 -5 -6 -21 -8 -21 -13 -5 -6 17 -8 17 -20 3 -11 -13 -11 -17 3 -22
19 -7 22 -34 3 -34 -7 0 -18 5 -25 12 -9 9 -21 8 -51 -2 -21 -7 -51 -10 -66
-6 -17 4 -35 2 -50 -8 -52 -34 -173 -28 -167 8 2 11 -4 20 -16 23 -24 6 -37
69 -20 91 9 10 9 15 -1 22 -19 11 -33 93 -18 102 7 5 0 8 -16 8 -16 0 -40 11
-55 25 -31 29 -57 32 -66 9 -5 -13 -15 -15 -46 -10 -48 8 -63 -9 -15 -18 37
-7 42 -15 23 -34 -16 -16 -4 -25 21 -17 14 4 21 15 21 31 0 27 8 30 34 11 17
-12 17 -15 2 -29 -9 -9 -16 -25 -16 -36 0 -13 -11 -24 -31 -31 -41 -14 -69
-14 -69 0 0 7 -9 0 -21 -15 -20 -26 -21 -26 -50 -9 -16 10 -29 21 -29 25 0 4
-6 8 -14 8 -8 0 -16 7 -20 15 -3 9 -19 15 -41 15 -31 0 -37 -4 -47 -31 -10
-29 -13 -31 -46 -25 -19 3 -38 9 -41 13 -3 4 -22 8 -41 8 -47 0 -53 27 -8 40
21 7 34 17 36 30 2 18 2 19 -8 3 -14 -23 -70 -25 -70 -3 0 8 -9 15 -20 15 -26
0 -26 -20 0 -27 28 -7 21 -37 -8 -41 -17 -3 -25 2 -29 17 -5 21 -13 25 -45 22
-10 -1 -18 4 -18 13 0 9 8 16 18 16 14 0 15 2 2 10 -12 7 -12 12 4 29 19 21
19 21 -13 21 -38 0 -48 20 -27 52 9 14 12 29 7 37 -5 7 -6 22 -4 32 6 20 -21
28 -32 9 -13 -21 -25 -9 -21 22 3 32 26 53 26 24 0 -23 27 -20 40 4 11 21 20
19 52 -7z"/>
<path d="M10233 1924 c-8 -4 -5 -12 8 -25 11 -11 17 -24 14 -29 -3 -5 -1 -11
5 -15 15 -9 12 -42 -5 -49 -18 -7 -19 -23 -2 -59 10 -22 17 -26 44 -23 55 7
75 17 69 33 -3 8 -6 19 -6 25 0 6 -12 8 -26 5 -31 -6 -42 14 -22 42 9 12 19
17 27 12 21 -13 58 -1 71 24 7 13 23 26 37 30 34 8 19 25 -23 25 -24 0 -34 -4
-31 -12 7 -21 -12 -48 -33 -48 -21 0 -27 15 -10 25 15 9 12 35 -3 35 -8 0 -22
-9 -31 -19 -13 -15 -14 -20 -4 -24 9 -4 9 -6 -2 -6 -9 -1 -24 13 -33 29 -18
30 -22 32 -44 24z"/>
</g>
</svg>
